<svg id="BACKGROUND" xmlns="http://www.w3.org/2000/svg" xmlns:xlink="http://www.w3.org/1999/xlink" viewBox="0 0 73.63 94.63"><defs><style>.cls-1{fill:none;}.cls-2{opacity:0.78;}.cls-3{clip-path:url(#clip-path);}.cls-4{opacity:0.68;}.cls-5{opacity:0.47;}.cls-6{fill:#ffb091;}.cls-7{fill:#812b27;}.cls-8{fill:#edb65d;}.cls-9{fill:#c1541e;}</style><clipPath id="clip-path"><rect class="cls-1" x="-642" y="-53" width="500" height="500"/></clipPath></defs><g class="cls-2"><g class="cls-3"><g class="cls-4"><g class="cls-4"><g class="cls-5"><path class="cls-6" d="M23.36,178.53a160.23,160.23,0,0,0-57-106.07C-86.07,28.92-165.3,17.94-234.73,28c-29.09,4.21-57.93,11.68-87.71,9.33-43.43-3.43-81.69-26.93-121.24-44.16-53.83-23.45-115.53-36.07-172.76-25.86C-681.32-21.11-734.52,22.59-740.87,80.58c-2.88,26.27,26.35,72.56,17.12,97.46-9.35,25.25-77.66,102.61-76,161.45,1.67,58.62,17.41,76.85,39.64,106.65h726c13.84-30.19,24.68-54.34,8.48-94C-38.58,320.49-3.4,294.4,10.21,264.92,22.33,238.68,26.31,207.12,23.36,178.53Z"/></g></g></g></g></g><g id="グループ_244" data-name="グループ 244"><path id="パス_28253" data-name="パス 28253" class="cls-7" d="M46.59,6.13a7.83,7.83,0,0,1,8.56-2.29c1.18.59,3.24,2.22,1.58,4-3.88-.16-7.84,5.58-7.76,9.58a87.44,87.44,0,0,0,1.55,9.79c-5.87-3.9-12-5.76-9.25-12.38A25.28,25.28,0,0,1,46.59,6.13Z"/><path id="パス_28254" data-name="パス 28254" class="cls-8" d="M1.44,54.71A61.16,61.16,0,0,0,5.58,74.33C8,80.5,14.25,89,21.49,90.84A36,36,0,0,0,42.77,87.5,47.44,47.44,0,0,0,60.9,69.82c3.24-5.15,8.25-17.41,2-23.06a14.28,14.28,0,0,0-4.81-2.47C45.36,39.66,28.55,30,15.26,28.69,8.57,28,6.41,31,4.13,36.75A46.5,46.5,0,0,0,1.44,54.71Z"/><path id="パス_28257" data-name="パス 28257" class="cls-7" d="M7.84,33.14,7.71,33a8.51,8.51,0,0,1-2.46-7.53c1.93-6.6,14.16-9.72,20.28-10.69A42.81,42.81,0,0,1,50.11,18,38.93,38.93,0,0,1,67.66,34.43c2.25,4.11,5.8,11,4.15,15.58C68.36,59.63,45.37,51.2,39,49.45,29,46.69,14.94,41.2,7.84,33.14Z"/><g id="グループ_243" data-name="グループ 243"><path id="パス_28258" data-name="パス 28258" class="cls-9" d="M29.5,21.46a1.2,1.2,0,1,1-.71-1.54l.08,0A1.16,1.16,0,0,1,29.5,21.46Z"/><path id="パス_28259" data-name="パス 28259" class="cls-9" d="M18.87,22.59a1.2,1.2,0,1,1-.7-1.54l.07,0A1.16,1.16,0,0,1,18.87,22.59Z"/><path id="パス_28260" data-name="パス 28260" class="cls-9" d="M25.28,27.92a1.2,1.2,0,1,1-.7-1.54l.07,0A1.16,1.16,0,0,1,25.28,27.92Z"/></g></g></svg>