<svg xmlns="http://www.w3.org/2000/svg" viewBox="0 0 375 400"><defs><style>.cls-1{fill:#fff;}.cls-2{fill:#923520;}.cls-3{fill:#f6ded0;}.cls-4{fill:#812b27;}.cls-5{fill:#bf4a10;}.cls-6,.cls-7{fill:#ffb091;}.cls-6{opacity:0.33;}.cls-8{fill:#491b24;}.cls-9{fill:#f3eee9;}</style></defs><g id="OBJECTS"><path class="cls-1" d="M230.85,7.38c7.37,0,15.18,3.46,21,10.05,9.8,11.14,10.09,27,.66,35.38-.35.31-.74.63-1.15,1C263.64,67.47,271,85,270.9,104l13,68.12c1.7-1.29,3.36-2.62,5-4,7.42-6.19,14-13.56,18.35-22.3.64-1.31,1.24-2.64,1.78-4,4.33-10.92,5.14-23.62,12.66-32.62a20.72,20.72,0,0,1,10.61-7,18.07,18.07,0,0,1,4.37-.52c4.61,0,9.26,1.59,13.49,3.61,4.65,2.22,9.15,5.06,12.26,9.19,3.29,4.36,4.79,9.88,5.15,15.35,1.16,17.28-4.47,35-13.59,49.46-9,14.25-21.46,26-35.26,35.64-7.51,5.23-15.54,9.86-24.19,12.76L300,256.65c12.38,5.91,38.31,24.27,21,69.87-15.14,39.86-19.3,47.31-20.4,48a14.92,14.92,0,0,1,6.17,12.09v6.3H240.13v-2.11c-1,0-2,.07-3,.07h-.33L183,390.58l-53.78.28h-.35c-1.8,0-3.57-.07-5.33-.2v2.24H56.92v-6.3a14.91,14.91,0,0,1,6.54-12.37c-1.49-1.72-6.09-10.86-20.09-47.71-18.22-47.95,11.4-65.78,22.78-70.68l6-31.54a112.54,112.54,0,0,1-15.83-9.36c-13.8-9.59-26.28-21.39-35.26-35.64C12,164.83,6.32,147.12,7.48,129.84c.36-5.47,1.86-11,5.15-15.35,3.11-4.13,7.61-7,12.26-9.19,4.23-2,8.88-3.61,13.49-3.61a18.07,18.07,0,0,1,4.37.52,20.72,20.72,0,0,1,10.61,7c7.52,9,8.33,21.7,12.66,32.62.54,1.36,1.14,2.69,1.78,4a67.33,67.33,0,0,0,15.53,19.84L95.08,104C95,85.08,102.25,67.72,114.4,54.05c-.54-.41-1-.82-1.47-1.21-9.37-8.48-9-24.32.93-35.38,5.79-6.48,13.55-9.88,20.86-9.88a20.56,20.56,0,0,1,14,5.2c3,2.73,7.07,8.09,10.84,14.46A95.51,95.51,0,0,1,179,24.47l.71,0c.86,0,1.71-.07,2.58-.07h1.37c.86,0,1.72,0,2.58.07l.7,0a95.44,95.44,0,0,1,18.94,2.64c3.87-6.46,8-11.89,11.11-14.64a20.56,20.56,0,0,1,13.84-5.09M300.2,374.23a2.78,2.78,0,0,1,0-.57l-.77.11c.26.15.51.29.76.46m-236-.42.2-.12-.21,0a1,1,0,0,1,0,.15M230.85,0h0a27.63,27.63,0,0,0-18.7,7,64.52,64.52,0,0,0-9.7,11.87,102.8,102.8,0,0,0-15.21-1.72l-.51,0h-.22l-.7,0c-.7,0-1.39-.05-2.09-.05h-1.47c-.68,0-1.38,0-2.07.05l-.68,0h-.24l-.54,0A103.18,103.18,0,0,0,163,18.92a63.34,63.34,0,0,0-9.4-11.62A28,28,0,0,0,134.72.2c-9.72,0-19.31,4.49-26.3,12.33a36.78,36.78,0,0,0-9.57,23.39,29.28,29.28,0,0,0,5.68,18.58,81.61,81.61,0,0,0-16.77,48.77l-8.89,46.66a50.56,50.56,0,0,1-4.51-7.38c-.56-1.13-1.07-2.29-1.53-3.44a100.46,100.46,0,0,1-3.35-10.81C67.26,120.11,65,111.63,59,104.47a27.69,27.69,0,0,0-14.46-9.42,25.34,25.34,0,0,0-6.13-.74c-5.1,0-10.54,1.41-16.63,4.32C15,101.88,10.2,105.5,6.79,110,3,115.11.67,121.79.17,129.35c-1.2,17.81,4,37,14.71,53.91C23.7,197.24,36.24,210,52.16,221a132,132,0,0,0,11.76,7.35l-4.27,22.4a55.17,55.17,0,0,0-22.29,20.5c-9.23,15.59-9.51,35.07-.84,57.9,9.74,25.63,14.88,37.74,17.77,43.71a22.34,22.34,0,0,0-4.7,13.73v6.3a7.35,7.35,0,0,0,7.33,7.37h66.61a7.25,7.25,0,0,0,5.06-2h.66L183,398l52.07.28a7.32,7.32,0,0,0,5.07,2h66.62a7.35,7.35,0,0,0,7.32-7.37v-6.3a22.36,22.36,0,0,0-4.3-13.17c3.18-6.39,8.41-18.9,18.05-44.27,8.3-21.84,8.39-40.66.26-55.94a53.56,53.56,0,0,0-21.56-21.49l-3.69-19.34a114.11,114.11,0,0,0,20-11.38c15.92-11.06,28.46-23.77,37.28-37.75,10.68-16.95,15.91-36.1,14.71-53.91-.5-7.56-2.79-14.24-6.62-19.32-3.41-4.53-8.17-8.15-15-11.4-6.09-2.91-11.53-4.32-16.63-4.32a25.34,25.34,0,0,0-6.13.74A27.69,27.69,0,0,0,316,104.47c-6,7.16-8.29,15.64-10.51,23.83a100.46,100.46,0,0,1-3.35,10.81c-.46,1.15-1,2.31-1.53,3.44a58.31,58.31,0,0,1-11.91,15.82l-10.5-55.1a81.61,81.61,0,0,0-17.06-49.14A29.37,29.37,0,0,0,266.69,36a36.8,36.8,0,0,0-9.38-23.47C250.3,4.57,240.66,0,230.85,0Z"/><path class="cls-2" d="M300,256.65,270.9,104c.09-19-7.26-36.5-19.57-50.2.41-.33.8-.65,1.15-1,9.43-8.4,9.14-24.24-.66-35.38s-25.38-13.36-34.81-5c-3.08,2.75-7.24,8.18-11.11,14.64A95.44,95.44,0,0,0,187,24.47l-.7,0c-.86,0-1.72-.07-2.58-.07h-1.37c-.87,0-1.72,0-2.58.07l-.71,0a95.51,95.51,0,0,0-19.47,2.77c-3.77-6.37-7.82-11.73-10.84-14.46-9.36-8.48-25-6.38-34.85,4.68s-10.3,26.9-.93,35.38c.43.39.93.8,1.47,1.21C102.25,67.72,95,85.08,95.08,104L66.15,255.84c-11.38,4.9-41,22.73-22.78,70.68,22.27,58.63,20.77,47.14,20.77,47.14l21.71,3.12a72.26,72.26,0,0,0,43.36,14.08l53.78-.28,53.78.28a72.21,72.21,0,0,0,43.75-14.37l19.69-2.83s-1.5,11.49,20.77-47.14C338.3,280.92,312.37,262.56,300,256.65Z"/><path class="cls-3" d="M138.55,171c-.07.92-.11,1.84-.11,2.78L119.18,274.84c-4.39,23.06,13.23,44.42,36.56,44.3L183,319l27.26.14c23.32.12,40.95-21.24,36.56-44.3L227.54,173.75c0-.79,0-1.57-.07-2.34A187.37,187.37,0,0,1,138.55,171Z"/><path class="cls-4" d="M67,371.69h49.83a6.68,6.68,0,0,1,6.68,6.68V392.9a0,0,0,0,1,0,0H56.92a0,0,0,0,1,0,0V381.8A10.11,10.11,0,0,1,67,371.69Z"/><path class="cls-5" d="M67.8,393.63a.73.73,0,0,1-.73-.7c-.55-12.22,6-15.16,6.23-15.28a.73.73,0,0,1,1,.39.74.74,0,0,1-.38,1c-.26.11-5.85,2.74-5.34,13.85a.74.74,0,0,1-.7.77Z"/><path class="cls-5" d="M79,393.63a.73.73,0,0,1-.73-.7c-.55-12.22,6-15.16,6.23-15.28a.73.73,0,0,1,1,.39.74.74,0,0,1-.38,1c-.26.11-5.85,2.74-5.35,13.85a.72.72,0,0,1-.69.77Z"/><path class="cls-4" d="M240.13,371.69h66.62a0,0,0,0,1,0,0v14.53a6.68,6.68,0,0,1-6.68,6.68H250.24a10.11,10.11,0,0,1-10.11-10.11v-11.1A0,0,0,0,1,240.13,371.69Z" transform="translate(546.88 764.59) rotate(180)"/><path class="cls-5" d="M295.86,393.63h0a.72.72,0,0,1-.69-.77c.5-11.21-5.29-13.83-5.34-13.85a.74.74,0,0,1-.39-1,.73.73,0,0,1,1-.39c.28.12,6.78,3.06,6.23,15.28A.73.73,0,0,1,295.86,393.63Z"/><path class="cls-5" d="M284.68,393.63h0a.72.72,0,0,1-.7-.77c.5-11.13-5.11-13.75-5.35-13.85a.74.74,0,0,1-.37-1,.72.72,0,0,1,.95-.39c.28.12,6.78,3.06,6.23,15.28A.73.73,0,0,1,284.68,393.63Z"/><path class="cls-2" d="M111.62,183.78c-9.3-3.23-17.93-9.37-25.47-15.64s-14-13.56-18.35-22.3c-.64-1.31-1.24-2.64-1.78-4-4.33-10.92-5.14-23.62-12.66-32.62a20.72,20.72,0,0,0-10.61-7c-6-1.49-12.29.43-17.86,3.09-4.65,2.22-9.15,5.06-12.26,9.19-3.29,4.36-4.79,9.88-5.15,15.35-1.16,17.28,4.47,35,13.59,49.46,9,14.25,21.46,26,35.26,35.64,8.36,5.82,17.36,10.92,27.15,13.69a78.31,78.31,0,0,0,21.39,2.71"/><path class="cls-6" d="M30.71,124.66A7.35,7.35,0,0,1,37,123.24a13.53,13.53,0,0,1,3.15,1.7,25.66,25.66,0,0,0,5.73,2.64A22.37,22.37,0,0,1,51,129.47a11.76,11.76,0,0,1,3.73,4,20.77,20.77,0,0,1,3.07,11.91c-.12,2-.7,4.14-2.38,5.16s-4.12.42-6.24.37c-6.59-.19-12.57,5.88-19,4.44a8.67,8.67,0,0,1-6.28-11.26c.62-1.85,1.92-3.45,2.42-5.34.4-1.54,0-3-.07-4.59A11.53,11.53,0,0,1,30.71,124.66Z"/><path class="cls-6" d="M14.87,134.05a3.43,3.43,0,0,0,1.38,3.32,5.24,5.24,0,0,0,3.58.88,3.21,3.21,0,0,0,2.5-1.24,3.08,3.08,0,0,0-.23-3.13,4.75,4.75,0,0,0-3.13-2.3,3.6,3.6,0,0,0-3.54,1.34,3,3,0,0,0,.22,3.69"/><path class="cls-6" d="M19.76,118.57a6.5,6.5,0,0,0,1.42,4.49,4,4,0,0,0,2.49,1.52,3.49,3.49,0,0,0,3.58-3.4,5.31,5.31,0,0,0-2.72-4.54,3.28,3.28,0,0,0-1.88-.58,2.93,2.93,0,0,0-1.77.85,4.49,4.49,0,0,0-.34,5.92"/><path class="cls-6" d="M35.92,112.27a.5.5,0,0,0-.71,0,1.37,1.37,0,0,0-.39.68,7.9,7.9,0,0,0-.37,4.55,3.82,3.82,0,0,0,3.2,2.91,3.69,3.69,0,0,0,3.28-2,6.66,6.66,0,0,0,.66-3.94,5.24,5.24,0,0,0-.61-2.14,3.79,3.79,0,0,0-5.33-1,4.59,4.59,0,0,0-1.21,5.53"/><path class="cls-6" d="M53,124.11a5.36,5.36,0,0,0,1.27-2.7c.28-3.73-5.55-4.71-6.51-1.12a7,7,0,0,0,.93,4.91C50.13,127.46,51.81,125.72,53,124.11Z"/><path class="cls-2" d="M263.38,183.78c9.3-3.23,17.93-9.37,25.47-15.64s14-13.56,18.35-22.3c.64-1.31,1.24-2.64,1.78-4,4.33-10.92,5.14-23.62,12.66-32.62a20.72,20.72,0,0,1,10.61-7c6-1.49,12.29.43,17.86,3.09,4.65,2.22,9.15,5.06,12.26,9.19,3.29,4.36,4.79,9.88,5.15,15.35,1.16,17.28-4.47,35-13.59,49.46-9,14.25-21.46,26-35.26,35.64-8.36,5.82-17.36,10.92-27.15,13.69a78.31,78.31,0,0,1-21.39,2.71"/><path class="cls-6" d="M344.29,124.66a7.35,7.35,0,0,0-6.24-1.42,13.53,13.53,0,0,0-3.15,1.7,25.66,25.66,0,0,1-5.73,2.64,22.37,22.37,0,0,0-5.13,1.89,11.76,11.76,0,0,0-3.73,4,20.77,20.77,0,0,0-3.07,11.91c.12,2,.7,4.14,2.38,5.16s4.12.42,6.24.37c6.59-.19,12.57,5.88,19,4.44a8.67,8.67,0,0,0,6.28-11.26c-.62-1.85-1.92-3.45-2.42-5.34-.4-1.54,0-3,.07-4.59A11.53,11.53,0,0,0,344.29,124.66Z"/><path class="cls-6" d="M360.13,134.05a3.43,3.43,0,0,1-1.38,3.32,5.24,5.24,0,0,1-3.58.88,3.21,3.21,0,0,1-2.5-1.24,3.08,3.08,0,0,1,.23-3.13,4.75,4.75,0,0,1,3.13-2.3,3.6,3.6,0,0,1,3.54,1.34,3,3,0,0,1-.22,3.69"/><path class="cls-6" d="M355.24,118.57a6.5,6.5,0,0,1-1.42,4.49,4,4,0,0,1-2.49,1.52,3.49,3.49,0,0,1-3.58-3.4,5.31,5.31,0,0,1,2.72-4.54,3.28,3.28,0,0,1,1.88-.58,2.93,2.93,0,0,1,1.77.85,4.49,4.49,0,0,1,.34,5.92"/><path class="cls-6" d="M339.08,112.27a.5.5,0,0,1,.71,0,1.37,1.37,0,0,1,.39.68,7.9,7.9,0,0,1,.37,4.55,3.82,3.82,0,0,1-3.2,2.91,3.69,3.69,0,0,1-3.28-2,6.66,6.66,0,0,1-.66-3.94,5.24,5.24,0,0,1,.61-2.14,3.79,3.79,0,0,1,5.33-1,4.59,4.59,0,0,1,1.21,5.53"/><path class="cls-6" d="M322,124.11a5.36,5.36,0,0,1-1.27-2.7c-.28-3.73,5.55-4.71,6.51-1.12a7,7,0,0,1-.93,4.91C324.87,127.46,323.19,125.72,322,124.11Z"/><path class="cls-7" d="M145.4,20.75C138.87,14.84,128,16.3,121.1,24c-6.74,7.55-7.15,18.28-1,24.27a89.14,89.14,0,0,1,32-18.87A43.6,43.6,0,0,0,145.4,20.75Z"/><path class="cls-7" d="M244.53,23.92c-6.83-7.76-17.7-9.31-24.27-3.45a44.19,44.19,0,0,0-6.87,8.77A89.26,89.26,0,0,1,245.6,48C251.53,42,251.13,31.43,244.53,23.92Z"/><rect class="cls-3" x="157.22" y="88.94" width="51.1" height="61.35" rx="15.97"/><path class="cls-8" d="M152.73,91.91a6.16,6.16,0,1,1-6.07-6.29A6.18,6.18,0,0,1,152.73,91.91Z"/><path class="cls-8" d="M223.7,91.91a6.16,6.16,0,1,1-6.07-6.29A6.18,6.18,0,0,1,223.7,91.91Z"/><path class="cls-8" d="M172.57,118.56a27.24,27.24,0,0,1-7.91-1.28.72.72,0,0,1-.46-.93.73.73,0,0,1,.92-.47c.1,0,9.48,3.12,14.36-.77,2.32-1.85,3.28-5.06,2.87-9.53a.74.74,0,0,1,.66-.81.75.75,0,0,1,.8.67c.46,5-.69,8.65-3.43,10.83A12.39,12.39,0,0,1,172.57,118.56Z"/><path class="cls-8" d="M193.56,118.56a12.38,12.38,0,0,1-7.8-2.29c-2.74-2.18-3.89-5.83-3.43-10.83a.73.73,0,1,1,1.46.14c-.41,4.47.55,7.68,2.87,9.53,4.88,3.89,14.26.81,14.36.77a.73.73,0,0,1,.92.47.72.72,0,0,1-.46.93A27.26,27.26,0,0,1,193.56,118.56Z"/><path class="cls-8" d="M183.08,110.81,174.36,107a5.81,5.81,0,0,1-3.48-5.33h0a4.53,4.53,0,0,1,4.52-4.55h16.21a3.38,3.38,0,0,1,3.37,3.39v1.16a5.51,5.51,0,0,1-3.15,5Z"/><path class="cls-6" d="M246,110.64c0,4-8.45,7.18-18.86,7.18s-18.86-3.22-18.86-7.18,8.44-7.18,18.86-7.18S246,106.67,246,110.64Z"/><path class="cls-9" d="M239.06,107.85c0,.51-1.08.91-2.4.91s-2.39-.4-2.39-.91,1.07-.91,2.39-.91S239.06,107.35,239.06,107.85Z"/><path class="cls-6" d="M119.49,110.64c0,4,8.45,7.18,18.87,7.18s18.86-3.22,18.86-7.18-8.45-7.18-18.86-7.18S119.49,106.67,119.49,110.64Z"/><path class="cls-9" d="M126.48,107.85c0,.51,1.07.91,2.39.91s2.4-.4,2.4-.91-1.08-.91-2.4-.91S126.48,107.35,126.48,107.85Z"/><path class="cls-8" d="M142,67.76a7.77,7.77,0,0,1-3.43,1.47c-1.28.32-2.56.69-3.66,1s-2.35.84-3.57,1.34a7.64,7.64,0,0,1-3.62.86c-1.09-.15-1.91-1.35-1.32-3.35s2.72-4.58,6.36-5.8,6.91-.35,8.43.91S142.81,67,142,67.76Z"/><path class="cls-8" d="M221.77,67.76a7.77,7.77,0,0,0,3.43,1.47c1.28.32,2.56.69,3.66,1s2.35.84,3.58,1.34a7.61,7.61,0,0,0,3.61.86c1.09-.15,1.91-1.35,1.32-3.35s-2.72-4.58-6.36-5.8-6.9-.35-8.43.91S221,67,221.77,67.76Z"/><path class="cls-4" d="M179.08,50.43c.11,1.5.22,3,.34,4.49a.73.73,0,1,0,1.46,0c-.11-1.5-.23-3-.34-4.49a.76.76,0,0,0-.73-.74.74.74,0,0,0-.73.74Z"/><path class="cls-4" d="M188.79,83.52l.34,4.2a.75.75,0,0,0,.73.74.76.76,0,0,0,.74-.74l-.34-4.2a.74.74,0,1,0-1.47,0Z"/><path class="cls-4" d="M169.34,71.31c.14,1.58.27,3.17.41,4.76a.76.76,0,0,0,.73.74.74.74,0,0,0,.73-.74c-.13-1.59-.27-3.18-.4-4.76a.74.74,0,1,0-1.47,0Z"/><path class="cls-4" d="M145.49,39.18l.75,3.11a.74.74,0,0,0,.9.52.75.75,0,0,0,.51-.91l-.74-3.11a.74.74,0,0,0-.9-.52.77.77,0,0,0-.52.91Z"/><path class="cls-4" d="M162.19,37.07a16.77,16.77,0,0,0,.23,4.69.74.74,0,0,0,.9.52.76.76,0,0,0,.51-.91,15.78,15.78,0,0,1-.17-4.3.73.73,0,0,0-.73-.74.76.76,0,0,0-.74.74Z"/><path class="cls-4" d="M157.3,59.34q.1.33.18.66l.06.36s.05.22,0,0c0,0,0,.12,0,.18a7.17,7.17,0,0,1,0,1.39.73.73,0,0,0,.73.73.75.75,0,0,0,.74-.73,8.2,8.2,0,0,0-.33-3,.73.73,0,0,0-.9-.51.75.75,0,0,0-.52.9Z"/><path class="cls-4" d="M122.8,55.14c.56,1.31,1.11,2.62,1.66,3.94a.74.74,0,0,0,1,.26.76.76,0,0,0,.26-1l-1.66-3.93a.73.73,0,0,0-1-.27.77.77,0,0,0-.26,1Z"/><path class="cls-4" d="M183.28,33.74c.23,1,.47,2.08.71,3.12a.74.74,0,0,0,.9.52.75.75,0,0,0,.51-.91c-.24-1-.47-2.08-.71-3.12a.73.73,0,1,0-1.41.39Z"/><path class="cls-4" d="M199.91,50.27a22.09,22.09,0,0,0,.63,5,.73.73,0,0,0,.9.51.75.75,0,0,0,.52-.9,19.87,19.87,0,0,1-.58-4.61.75.75,0,0,0-.74-.73.74.74,0,0,0-.73.73Z"/><path class="cls-4" d="M239.2,52.67a22.09,22.09,0,0,0,.63,5,.73.73,0,0,0,.9.51.74.74,0,0,0,.51-.9,20.42,20.42,0,0,1-.58-4.61.73.73,0,1,0-1.46,0Z"/><path class="cls-4" d="M205.37,35c.12,1.13.25,2.26.38,3.39a.75.75,0,0,0,.73.74c.36,0,.78-.33.73-.74-.12-1.13-.25-2.26-.38-3.39a.75.75,0,0,0-.73-.74c-.36,0-.78.33-.73.74Z"/><path class="cls-4" d="M220.6,40.34a10.62,10.62,0,0,0,.1,4.92.74.74,0,0,0,.9.52.76.76,0,0,0,.51-.91,9,9,0,0,1-.09-4.13.74.74,0,1,0-1.42-.4Z"/><path class="cls-4" d="M186.15,66v3.37a.74.74,0,0,0,1.47,0V66a.74.74,0,1,0-1.47,0Z"/><path class="cls-4" d="M226.65,49.3v3.37a.73.73,0,1,0,1.46,0V49.3a.73.73,0,1,0-1.46,0Z"/><path class="cls-4" d="M114.25,66v3.37a.74.74,0,0,0,1.47,0V66a.74.74,0,1,0-1.47,0Z"/><path class="cls-4" d="M243.41,62.76v3.37a.74.74,0,1,0,1.47,0V62.76a.74.74,0,0,0-.74-.74.76.76,0,0,0-.73.74Z"/><path class="cls-4" d="M199,72v3.37a.74.74,0,0,0,.74.74.76.76,0,0,0,.73-.74V72A.74.74,0,1,0,199,72Z"/><path class="cls-4" d="M137.36,49.43V52.8a.73.73,0,1,0,1.46,0V49.43a.73.73,0,1,0-1.46,0Z"/><path class="cls-4" d="M174.39,82.29l0,2.93a.74.74,0,1,0,1.47,0l0-2.93a.76.76,0,0,0-.73-.74.77.77,0,0,0-.74.74Z"/></g></svg>